<?xml version="1.0" encoding="UTF-8"?>
<svg id="_图层_1" data-name="图层_1" xmlns="http://www.w3.org/2000/svg" viewBox="0 0 1080 1080">
  <path d="M813.58,52.5c57.14,0,110.86,22.25,151.26,62.66,40.4,40.4,62.66,94.12,62.66,151.26v547.16c0,57.14-22.25,110.86-62.66,151.26s-94.12,62.66-151.26,62.66H266.42c-57.14,0-110.86-22.25-151.26-62.66-40.4-40.4-62.66-94.12-62.66-151.26V266.42c0-57.14,22.25-110.86,62.66-151.26,40.4-40.4,94.12-62.66,151.26-62.66h547.16M813.58,10.5H266.42C125.08,10.5,10.5,125.08,10.5,266.42v547.16c0,141.34,114.58,255.92,255.92,255.92h547.16c141.34,0,255.92-114.58,255.92-255.92V266.42c0-141.34-114.58-255.92-255.92-255.92h0Z"/>
  <path d="M874.76,773.43l-122.14-274.81c-7.36-16.52-23.75-27.17-41.83-27.18-18.09,0-34.48,10.65-41.83,27.18l-11.45,25.8-86.57-251.45c-8.27-23.9-34.36-36.58-58.26-28.3-13.28,4.59-23.71,15.03-28.3,28.3l-58.63,170.08-7.63-21.53c-8.51-23.82-34.72-36.23-58.54-27.72-12.92,4.62-23.1,14.79-27.72,27.72l-127.94,355.27c-8.43,23.85,4.07,50.02,27.91,58.45,4.86,1.72,9.98,2.6,15.14,2.62h585.96c25.3,0,45.8-20.52,45.79-45.81,0-6.41-1.35-12.76-3.96-18.61ZM310.48,776.79c-1.67,4.91-2.5,10.08-2.44,15.27h-61.07l127.94-354.96,27.02,74.96-91.45,264.74ZM546.82,773.13c-2.53,5.99-3.78,12.43-3.66,18.93h-189.31l173.89-503.82,102.6,297.56-83.51,187.33ZM588.65,792.06l122.14-274.81,122.14,274.81h-244.28ZM756.59,425.64c42.16,0,76.34-34.18,76.34-76.34s-34.18-76.34-76.34-76.34c-42.16,0-76.34,34.18-76.34,76.34h0c0,42.16,34.18,76.34,76.34,76.34ZM756.59,318.77c16.86,0,30.53,13.67,30.53,30.53,0,16.86-13.67,30.53-30.53,30.53-16.86,0-30.53-13.67-30.53-30.53s13.67-30.53,30.53-30.53h0Z"/>
</svg>